# generated from PmQm by Jehee Lee
:FULLY-SPECIFIED
:DEGREES
563
root 45.41966407 38.9605 -30.72491381 175.8999106 -28.05674825 -173.4361578
RightUpLeg -18.81422888 4.250132133 9.145844778
RightLeg 19.17967715 0 0
RightFoot -1.462919812 16.4086042 -4.917668469
RightToes 2.32829e-010 -1.59028e-015 9.93923e-017
Spine -7.83645 -1.43061 7.21708
Spine1 13.4939 -1.89804 1.99475
HEad -7.51557 -2.16027 3.22743
LeftShoulder1 9.93923e-017 0 1.22299e-017
LeftArm 3.31971 40.2464 -81.5602
LeftForeArm -12.7848 -8.16886 -7.155
LeftHand 1.03904 7.59664 -7.14162
RightShoulder 1.98785e-016 -4.96962e-017 1.55301e-017
RightArm 13.4859 -40.2862 86.3907
RightForeArm -35.0111 17.704 -4.95831
RightHand 1.18406 -10.5387 -5.75478
LeftUpLeg 2.111442081 -6.909808445 11.36733842
LeftLeg 33.91666584 -0.9951760499 11.70283145
LeftFoot 23.54670614 19.10268462 -19.95358861
LeftToes 8.82235e-011 9.04645e-011 1.87288e-011
564
root 44.78128254 39.1443 -31.94534056 176.3267513 -25.51503271 -174.5422386
RightUpLeg -16.44810393 3.825261564 8.594755107
RightLeg 19.60629306 0 0
RightFoot -3.79383831 19.29640985 -5.418553205
RightToes 2.32829e-010 -1.59028e-015 9.93923e-017
Spine -7.68166 -0.17435 8.22232
Spine1 13.3304 -0.160738 0.328532
HEad -6.7365 -3.35321 3.01867
LeftShoulder1 9.93923e-017 0 1.22299e-017
LeftArm 5.60205 44.353 -79.4347
LeftForeArm -13.5077 -8.53464 -6.98397
LeftHand 1.03691 7.58639 -7.36546
RightShoulder 1.98785e-016 -4.96962e-017 1.55301e-017
RightArm 23.2456 -37.7105 87.0416
RightForeArm -47.9143 19.9529 -13.667
RightHand 1.16294 -10.4491 -5.53183
LeftUpLeg -4.582528999 -6.831270392 9.270639706
LeftLeg 36.94328288 -3.065351024 9.301316649
LeftFoot 19.3421007 15.7934833 -18.90339001
LeftToes 8.82235e-011 9.04645e-011 1.87288e-011
565
root 44.54656909 39.2712 -33.28836774 176.7733642 -22.39792897 -175.4757633
RightUpLeg -14.23208699 3.578645583 8.736664111
RightLeg 19.77340329 0 0
RightFoot -5.932264694 22.67256754 -7.448988004
RightToes 2.32829e-010 -1.59028e-015 9.93923e-017
Spine -7.50668 1.16492 9.12466
Spine1 13.1693 1.53409 -1.02202
HEad -6.76522 -4.21988 2.61991
LeftShoulder1 9.93923e-017 0 1.22299e-017
LeftArm 7.35789 48.1467 -76.6541
LeftForeArm -14.7028 -10.3329 -5.82241
LeftHand 1.0147 7.29527 -7.40219
RightShoulder 1.98785e-016 -4.96962e-017 1.55301e-017
RightArm 27.874 -35.0547 86.6223
RightForeArm -54.4254 21.509 -20.8458
RightHand 1.13653 -10.2799 -5.47069
LeftUpLeg -10.49875024 -5.716095408 7.610624176
LeftLeg 37.24939852 -4.789314579 6.700606856
LeftFoot 14.30080907 12.46015524 -17.4949916
LeftToes 8.82235e-011 9.04645e-011 1.87288e-011
566
root 44.32031322 39.3511 -34.63029549 177.1746143 -19.11014654 -176.0995645
RightUpLeg -12.12017208 3.19230472 8.966356136
RightLeg 19.97048705 0 0
RightFoot -8.566360769 26.06867981 -9.887469846
RightToes 2.32829e-010 -1.59028e-015 9.93923e-017
Spine -7.5167 2.4629 10.0566
Spine1 13.1436 3.04149 -2.25914
HEad -7.17577 -4.74753 2.14411
LeftShoulder1 9.93923e-017 0 1.22299e-017
LeftArm 9.71386 51.2335 -73.7732
LeftForeArm -17.2206 -12.4679 -4.32667
LeftHand 1.00603 7.18139 -7.52092
RightShoulder 1.98785e-016 -4.96962e-017 1.55301e-017
RightArm 23.4667 -31.7158 85.2526
RightForeArm -49.3998 24.6436 -22.8614
RightHand 1.11765 -10.0563 -5.86373
LeftUpLeg -15.37370211 -3.633808607 6.409770146
LeftLeg 34.36173924 -5.857108147 4.695863865
LeftFoot 9.491097179 9.644218752 -16.28454875
LeftToes 8.82235e-011 9.04645e-011 1.87288e-011
567
root 44.10069258 39.3275 -35.98732514 177.2362156 -16.05168092 -176.2421053
RightUpLeg -9.907409758 2.598425297 9.375330866
RightLeg 20.50969193 0 0
RightFoot -11.81931673 28.93002292 -12.1328101
RightToes 2.32829e-010 -1.59028e-015 9.93923e-017
Spine -7.50674 3.43618 11.2677
Spine1 13.3803 4.13737 -3.40054
HEad -7.70232 -4.95186 1.66868
LeftShoulder1 9.93923e-017 0 1.22299e-017
LeftArm 9.94681 53.4464 -71.1492
LeftForeArm -17.9221 -13.2168 -3.49391
LeftHand 1.0069 7.19274 -7.40753
RightShoulder 1.98785e-016 -4.96962e-017 1.55301e-017
RightArm 21.8119 -28.0745 84.0461
RightForeArm -46.3925 27.0863 -24.6167
RightHand 1.13036 -10.0345 -6.34538
LeftUpLeg -18.77680413 -1.439100624 5.66713526
LeftLeg 28.32280575 -6.363113044 3.200222651
LeftFoot 7.454632173 7.925730245 -15.42258581
LeftToes 8.82235e-011 9.04645e-011 1.87288e-011
568
root 43.88292206 39.2265 -37.38050785 177.015176 -13.57119278 -176.0619831
RightUpLeg -7.507204388 1.933477825 9.754430377
RightLeg 21.24596606 0 0
RightFoot -15.12961415 31.23192066 -14.15213878
RightToes 2.32829e-010 -1.59028e-015 9.93923e-017
Spine -7.51407 3.94656 12.4929
Spine1 13.8214 4.73415 -4.4139
HEad -8.20261 -4.98025 1.35199
LeftShoulder1 9.93923e-017 0 1.22299e-017
LeftArm 7.05531 54.8469 -68.866
LeftForeArm -15.3483 -12.2028 -3.69852
LeftHand 0.989239 6.97426 -6.78467
RightShoulder 1.98785e-016 -4.96962e-017 1.55301e-017
RightArm 20.9799 -24.6445 83.1853
RightForeArm -44.7933 28.7058 -25.8324
RightHand 1.16563 -10.225 -6.54391
LeftUpLeg -20.6179679 -0.3560784015 5.173635297
LeftLeg 19.77709166 -6.406381106 1.984857852
LeftFoot 8.01138132 6.799956388 -13.83547493
LeftToes 8.82235e-011 9.04645e-011 1.87288e-011
569
root 43.66324494 39.1368 -38.80352726 177.1132699 -11.42943892 -175.9487818
RightUpLeg -5.278488589 1.459540534 9.841401513
RightLeg 21.72332826 0 0
RightFoot -18.19820621 33.29260396 -16.28268914
RightToes 2.32829e-010 -1.59028e-015 9.93923e-017
Spine -8.09685 4.28993 13.4388
Spine1 14.4793 5.16981 -5.55563
HEad -8.53831 -5.02505 1.2513
LeftShoulder1 9.93923e-017 0 1.22299e-017
LeftArm 3.03309 55.6042 -66.8765
LeftForeArm -11.7008 -10.2295 -4.35487
LeftHand 0.964956 6.70599 -5.97777
RightShoulder 1.98785e-016 -4.96962e-017 1.55301e-017
RightArm 20.1872 -21.9817 82.6238
RightForeArm -44.228 29.6533 -26.5435
RightHand 1.17304 -10.2993 -6.4314
LeftUpLeg -21.51851738 -0.498630936 4.554866387
LeftLeg 9.618799616 -6.00944539 1.110966441
LeftFoot 8.955850058 5.582168291 -11.59353325
LeftToes 8.82235e-011 9.04645e-011 1.87288e-011
570
root 43.44227035 39.0155 -40.28024919 177.9041889 -9.044604518 -175.7646978
RightUpLeg -3.87926275 1.156072706 9.788513381
RightLeg 22.53353561 0 0
RightFoot -21.61345392 35.38504025 -18.79019604
RightToes 2.32829e-010 -1.59028e-015 9.93923e-017
Spine -9.55206 4.83757 14.5931
Spine1 15.3412 5.80493 -6.97747
HEad -8.71883 -5.13068 1.30073
LeftShoulder1 9.93923e-017 0 1.22299e-017
LeftArm -0.365423 55.8509 -65.2931
LeftForeArm -9.19698 -8.25998 -4.8776
LeftHand 0.973909 6.82217 -5.55341
RightShoulder 1.98785e-016 -4.96962e-017 1.55301e-017
RightArm 19.5693 -20.2135 82.2798
RightForeArm -44.1874 29.9719 -26.7769
RightHand 1.14635 -10.1704 -6.21836
LeftUpLeg -22.90345193 -0.3029298635 3.646702068
LeftLeg 0.724143904 -5.411800473 0.7573079587
LeftFoot 8.378559383 4.216002652 -10.44540972
LeftToes 8.82235e-011 9.04645e-011 1.87288e-011
571
root 43.21845927 38.7936 -41.85292586 179.0668581 -6.436677093 -175.3620797
RightUpLeg -3.191358553 0.7935721626 9.633839217
RightLeg 24.28443964 0 0
RightFoot -25.24545193 37.64413652 -21.41207368
RightToes 2.32829e-010 -1.59028e-015 9.93923e-017
Spine -11.2292 5.50976 16.0989
Spine1 16.0748 6.49691 -8.38122
HEad -8.96868 -5.25482 1.45882
LeftShoulder1 9.93923e-017 0 1.22299e-017
LeftArm -3.43556 55.6358 -64.3967
LeftForeArm -7.41591 -6.44362 -5.20002
LeftHand 1.00257 7.13443 -5.52391
RightShoulder 1.98785e-016 -4.96962e-017 1.55301e-017
RightArm 19.2962 -19.3455 82.2059
RightForeArm -44.2739 29.6849 -26.5628
RightHand 1.13498 -10.1113 -6.14149
LeftUpLeg -26.03159006 -0.5284866116 3.289095935
LeftLeg -1.901537082 -3.23112849 0.3402014969
LeftFoot 5.251641052 2.920718971 -10.99321186
LeftToes 8.82235e-011 9.04645e-011 1.87288e-011
572
root 42.99224368 38.606 -43.46132541 -179.9489781 -4.175936826 -175.4372175
RightUpLeg -2.418762438 0.3647126397 8.649723294
RightLeg 26.31885594 0 0
RightFoot -27.73823084 40.0334434 -23.64218601
RightToes 2.32829e-010 -1.59028e-015 9.93923e-017
Spine -12.1546 5.85722 16.6885
Spine1 16.4674 7.00495 -9.47714
HEad -9.44381 -5.42776 1.65421
LeftShoulder1 9.93923e-017 0 1.22299e-017
LeftArm -6.6077 55.0293 -64.3725
LeftForeArm -5.50597 -4.71902 -5.34881
LeftHand 1.0012 7.1207 -5.41116
RightShoulder 1.98785e-016 -4.96962e-017 1.55301e-017
RightArm 19.1526 -19.652 82.4421
RightForeArm -44.4089 28.9425 -26.0225
RightHand 1.15452 -10.207 -6.29791
LeftUpLeg -28.46656196 -1.080073712 2.453149441
LeftLeg -0.4365709728 -1.167630292 -0.02491471371
LeftFoot 2.493049798 1.922991467 -11.0112153
LeftToes 8.82235e-011 9.04645e-011 1.87288e-011
573
root 42.7537968 38.4781 -45.16253188 -179.3440569 -1.678627998 -176.2418021
RightUpLeg -1.319441513 -0.3917813065 6.388383497
RightLeg 28.7791046 0 0
RightFoot -29.96157566 42.99596993 -26.5966516
RightToes 2.32829e-010 -1.59028e-015 9.93923e-017
Spine -12.4809 6.07 16.131
Spine1 16.6758 7.5605 -10.1947
HEad -9.91584 -5.61014 1.72987
LeftShoulder1 9.93923e-017 0 1.22299e-017
LeftArm -9.17442 54.3413 -65.0809
LeftForeArm -4.28792 -3.67452 -5.31467
LeftHand 0.976454 6.86272 -5.07199
RightShoulder 1.98785e-016 -4.96962e-017 1.55301e-017
RightArm 19.3593 -21.2995 82.9588
RightForeArm -44.8823 27.7921 -25.1879
RightHand 1.1632 -10.207 -6.55283
LeftUpLeg -28.78615169 -2.092063688 1.259443423
LeftLeg 2.102161624 0 0
LeftFoot 2.645827158 0.821275082 -8.142518152
LeftToes 8.82235e-011 9.04645e-011 1.87288e-011
574
root 42.50277228 38.3992 -46.97822619 -178.7849475 1.763392231 -177.6734452
RightUpLeg -0.4842050686 -1.959917678 2.553201175
RightLeg 31.86544587 0 0
RightFoot -32.58810961 47.21988378 -31.04885312
RightToes 2.32829e-010 -1.59028e-015 9.93923e-017
Spine -12.9619 6.48979 14.6785
Spine1 16.9032 8.37685 -10.7635
HEad -9.95357 -5.53207 1.71529
LeftShoulder1 9.93923e-017 0 1.22299e-017
LeftArm -10.4968 54.0093 -66.1619
LeftForeArm -4.69278 -3.83271 -5.16164
LeftHand 0.972732 6.82958 -4.8704
RightShoulder 1.98785e-016 -4.96962e-017 1.55301e-017
RightArm 21.128 -23.8806 83.8761
RightForeArm -46.265 25.967 -23.8724
RightHand 1.1413 -10.0446 -6.63461
LeftUpLeg -28.80471905 -2.82415719 0.9731703015
LeftLeg 6.798558595 0 0
LeftFoot 4.362537765 2.76967194 -3.274706251
LeftToes 8.82235e-011 9.04645e-011 1.87288e-011
575
root 42.28497762 38.41137577 -48.81200976 -178.6831888 3.849157095 -179.8010384
RightUpLeg -0.5580491874 -3.959691475 -0.9730669643
RightLeg 36.03341224 0 0
RightFoot -27.16545844 47.43222823 -36.58304216
RightToes 2.32829e-010 -1.59028e-015 9.93923e-017
Spine -12.66719625 5.540481784 10.99942851
Spine1 15.9615952 7.528856474 -10.68229244
HEad -9.20112049 -5.217998903 2.316593388
LeftShoulder1 9.93923e-017 0 1.22299e-017
LeftArm -11.70516909 52.82736869 -67.28620872
LeftForeArm -5.529452188 -3.703602121 -5.188081799
LeftHand 1.02661 7.3694 -4.41701
RightShoulder 1.98785e-016 -4.96962e-017 1.55301e-017
RightArm 25.11560053 -27.33790153 85.93115987
RightForeArm -48.41120236 24.4836114 -22.94891294
RightHand 1.19146 -10.4042 -6.50393
LeftUpLeg -28.44081211 -2.817803112 -0.2597875116
LeftLeg 12.14045123 0 0
LeftFoot 3.132454491 4.402241399 -2.707865644
LeftToes 8.82235e-011 9.04645e-011 1.87288e-011
